<?xml version="1.0" encoding="UTF-8"?><svg id="Layer_2" xmlns="http://www.w3.org/2000/svg" xmlns:xlink="http://www.w3.org/1999/xlink" viewBox="0 0 179.21 179.21"><defs><style>.cls-1{fill:url(#linear-gradient);}.cls-2{fill:#e6e7e8;}</style><linearGradient id="linear-gradient" x1="89.6" y1="179.21" x2="89.6" y2="0" gradientUnits="userSpaceOnUse"><stop offset="0" stop-color="#002c54"/><stop offset="1" stop-color="#00578f"/></linearGradient></defs><g id="Layer_1-2"><rect class="cls-1" x="0" y="0" width="179.21" height="179.21" rx="89.6" ry="89.6"/><path class="cls-2" d="M73.62,105.74c0,4.34,1.55,7.91,4.5,10.55,2.95,2.64,6.83,4.03,11.33,4.03,4.81,0,8.85-1.24,11.79-3.88,2.95-2.64,4.5-6.67,4.5-12.1v-47.48h-22.5v-22.66h48.88v70.76c0,5.74-1.09,11.17-3.1,15.98-2.17,4.97-5.12,9.16-9,12.72-3.88,3.57-8.38,6.36-13.65,8.38-5.28,2.02-11.02,2.95-17.38,2.95s-11.48-.93-16.6-2.79c-5.12-1.86-9.62-4.5-13.35-7.76-3.72-3.26-6.67-7.29-8.69-11.95-2.17-4.5-3.26-9.62-3.26-15.05v-9l26.54.15v7.14Z"/></g></svg>