<?xml version="1.0" encoding="UTF-8"?><svg id="Layer_2" xmlns="http://www.w3.org/2000/svg" xmlns:xlink="http://www.w3.org/1999/xlink" viewBox="0 0 187.12 47.4"><defs><style>.cls-1{fill:url(#linear-gradient-5);}.cls-2{fill:url(#linear-gradient-6);}.cls-3{fill:url(#linear-gradient-4);}.cls-4{fill:url(#linear-gradient-3);}.cls-5{fill:url(#linear-gradient-2);}.cls-6{fill:url(#linear-gradient);}</style><linearGradient id="linear-gradient" x1="13.7" y1="38.4" x2="13.7" y2="2.7" gradientUnits="userSpaceOnUse"><stop offset="0" stop-color="#231f20"/><stop offset="1" stop-color="#58595b"/></linearGradient><linearGradient id="linear-gradient-2" x1="44.79" y1="38.2" x2="44.79" y2="8.8" xlink:href="#linear-gradient"/><linearGradient id="linear-gradient-3" x1="76.87" y1="37.7" x2="76.87" y2="0" xlink:href="#linear-gradient"/><linearGradient id="linear-gradient-4" x1="108.86" y1="37.7" x2="108.86" y2="8.8" xlink:href="#linear-gradient"/><linearGradient id="linear-gradient-5" x1="140.75" y1="37.7" x2="140.75" y2="8.8" xlink:href="#linear-gradient"/><linearGradient id="linear-gradient-6" x1="170.52" y1="47.4" x2="170.52" y2="9.3" xlink:href="#linear-gradient"/></defs><g id="Layer_1-2"><path class="cls-6" d="M8.55,25.75c0,1.4.5,2.55,1.45,3.4.95.85,2.2,1.3,3.65,1.3,1.55,0,2.85-.4,3.8-1.25s1.45-2.15,1.45-3.9v-15.3h-7.25V2.7h15.75v22.8c0,1.85-.35,3.6-1,5.15-.7,1.6-1.65,2.95-2.9,4.1s-2.7,2.05-4.4,2.7c-1.7.65-3.55.95-5.6.95s-3.7-.3-5.35-.9c-1.65-.6-3.1-1.45-4.3-2.5-1.2-1.05-2.15-2.35-2.8-3.85-.7-1.45-1.05-3.1-1.05-4.85v-2.9l8.55.05v2.3Z"/><path class="cls-5" d="M30.77,17.6c.75-1.8,1.8-3.35,3.15-4.65,1.35-1.3,2.95-2.3,4.8-3.05s3.85-1.1,6.1-1.1,4.25.35,6.1,1.1,3.45,1.75,4.8,3.05c1.35,1.3,2.4,2.85,3.15,4.65.75,1.8,1.1,3.75,1.1,5.9s-.35,4.1-1.1,5.9c-.75,1.8-1.8,3.35-3.15,4.65-1.35,1.3-2.95,2.3-4.8,3.05s-3.9,1.1-6.1,1.1-4.25-.35-6.1-1.1-3.45-1.75-4.8-3.05c-1.35-1.3-2.4-2.85-3.15-4.65-.75-1.8-1.15-3.75-1.15-5.9s.4-4.1,1.15-5.9ZM38.47,26.5c.35.9.8,1.7,1.4,2.35s1.35,1.2,2.2,1.55,1.75.55,2.75.55,1.9-.2,2.75-.55,1.55-.9,2.15-1.55,1.1-1.45,1.45-2.4c.35-.9.5-1.9.5-2.95s-.15-2.05-.5-3c-.35-.9-.85-1.7-1.45-2.35s-1.3-1.2-2.15-1.55c-.85-.35-1.75-.55-2.75-.55s-1.9.2-2.75.55c-.85.35-1.6.9-2.2,1.55s-1.05,1.45-1.4,2.35c-.35.95-.55,1.95-.55,3s.2,2.1.55,3Z"/><path class="cls-4" d="M70.2,0v13.1c.9-1.35,2.2-2.4,3.9-3.15,1.65-.75,3.45-1.15,5.4-1.15,1.75,0,3.35.3,4.8.95,1.45.65,2.75,1.6,3.8,2.75,1.05,1.15,1.9,2.55,2.5,4.15.6,1.65.9,3.4.9,5.3v15.75h-8.25v-15.6c0-.95-.15-1.8-.45-2.6-.35-.75-.75-1.45-1.3-2s-1.25-1-2-1.35c-.75-.3-1.6-.45-2.45-.45-1.95,0-3.55.6-4.75,1.85s-1.8,2.85-1.8,4.8v15.35h-8.25V0h7.95Z"/><path class="cls-3" d="M115.14,22.5c0-1.9-.6-3.45-1.75-4.65-1.15-1.15-2.65-1.75-4.5-1.75s-3.35.6-4.5,1.75c-1.2,1.2-1.8,2.75-1.8,4.65v15.2h-8.25v-15.4c0-1.95.35-3.8,1.1-5.45.7-1.65,1.7-3.05,3-4.25,1.25-1.2,2.8-2.15,4.6-2.8,1.75-.65,3.7-1,5.85-1s4.05.35,5.8,1c1.75.65,3.3,1.6,4.6,2.8,1.3,1.2,2.3,2.6,3.05,4.25.7,1.65,1.05,3.5,1.05,5.45v15.4h-8.25v-15.2Z"/><path class="cls-1" d="M147.02,22.5c0-1.9-.6-3.45-1.75-4.65-1.15-1.15-2.65-1.75-4.5-1.75s-3.35.6-4.5,1.75c-1.2,1.2-1.8,2.75-1.8,4.65v15.2h-8.25v-15.4c0-1.95.35-3.8,1.1-5.45.7-1.65,1.7-3.05,3-4.25,1.25-1.2,2.8-2.15,4.6-2.8,1.75-.65,3.7-1,5.85-1s4.05.35,5.8,1c1.75.65,3.3,1.6,4.6,2.8s2.3,2.6,3.05,4.25c.7,1.65,1.05,3.5,1.05,5.45v15.4h-8.25v-15.2Z"/><path class="cls-2" d="M164.32,47.4l3.65-9.7h-3.35l-10.7-28.4h8.55l7.95,21.9,8.3-21.9h8.4l-14.65,38.1h-8.15Z"/></g></svg>